<svg xmlns="http://www.w3.org/2000/svg" xmlns:xlink="http://www.w3.org/1999/xlink" width="500" zoomAndPan="magnify" viewBox="0 0 375 374.999991" height="500" preserveAspectRatio="xMidYMid meet" version="1.0"><defs><clipPath id="id1"><path d="M 71.914062 75.550781 L 257.164062 75.550781 L 257.164062 315.550781 L 71.914062 315.550781 Z M 71.914062 75.550781 " clip-rule="nonzero"/></clipPath></defs><path fill="rgb(78.039551%, 81.568909%, 84.709167%)" d="M 187.5 0 C 83.945312 0 0 83.945312 0 187.5 C 0 291.054688 83.945312 375 187.5 375 C 291.054688 375 375 291.054688 375 187.5 C 375 83.945312 291.054688 0 187.5 0 " fill-opacity="1" fill-rule="nonzero"/><g clip-path="url(#id1)"><path fill="rgb(89.408875%, 39.608765%, 45.489502%)" d="M 172.464844 75.722656 L 77.363281 75.722656 C 74.355469 75.722656 71.914062 78.164062 71.914062 81.175781 L 71.914062 310.0625 C 71.914062 313.070312 74.355469 315.515625 77.363281 315.515625 L 115.5 315.515625 C 118.507812 315.515625 120.949219 313.070312 120.949219 310.0625 L 120.949219 239.171875 L 170.667969 239.171875 C 221.59375 239.171875 257.164062 205.253906 257.164062 156.699219 C 257.164062 108.265625 223.125 75.722656 172.464844 75.722656 Z M 161.589844 201.003906 L 120.949219 201.003906 L 120.949219 113.753906 L 161.75 113.753906 C 191.394531 113.753906 208.125 129.105469 208.125 157.699219 C 208.125 185.496094 190.914062 201.003906 161.589844 201.003906 Z M 161.589844 201.003906 " fill-opacity="1" fill-rule="nonzero"/></g></svg>